<svg width="246" height="246" viewBox="0 0 246 246" fill="none" xmlns="http://www.w3.org/2000/svg">
<path d="M90.8203 0.0721592C131.973 -1.35299 158.653 18.332 170.866 59.1259C172.379 59.6416 173.96 60.5102 175.387 61.9364C178.307 64.8564 178.891 68.4243 178.891 70.7323V75.0839C180.393 75.5024 181.861 76.0368 183.296 76.6718C188.373 78.6653 193.441 81.9818 196.19 87.5634C199.221 93.2353 198.662 99.5272 197.19 104.786L197.191 104.787L196.041 109.157L195.777 110.159L195.314 111.085C194.384 112.946 191.174 118.453 184.3 118.453H181.758L180.218 117.939C179.804 117.802 179.357 117.637 178.891 117.446V140.241L179.339 139.926C180.199 139.287 181.222 138.601 182.358 138.033C183.385 137.52 185.408 136.633 187.98 136.633L188.326 136.638C191.903 136.736 195.638 138.367 198.025 141.948C200.013 144.93 200.28 148.138 200.28 150.083C200.28 154.469 198.956 158.75 197.1 162.696L196.899 163.131C194.799 167.605 191.641 171.446 187.787 174.722C185.147 176.966 182.143 178.707 178.891 180.033V184.352C178.891 186.514 178.419 190.001 175.715 192.976C172.846 196.132 169.157 196.883 166.59 196.883H165.634C162.911 203.011 159.762 208.595 156.181 213.633C141.234 234.659 119.194 245.173 90.0605 245.173C60.9274 245.173 38.634 234.659 23.1807 213.633C7.72741 192.353 7.62735e-05 162.586 0 124.333C0 85.8263 7.72736 55.8057 23.1807 34.2724C38.8873 12.4859 61.4338 1.08549 90.8203 0.0721592ZM91.5801 30.4725C59.9135 30.4726 44.0801 62.5191 44.0801 126.612C44.0801 158.532 48.007 181.333 55.8604 195.013C63.7137 208.439 75.4936 215.152 91.2002 215.152C107.16 215.152 118.307 208.059 124.641 193.872C126.96 188.787 128.868 182.617 130.37 175.364C126.951 173.072 123.793 170.306 120.92 167.058L120.853 166.982L120.787 166.905C111.997 156.552 108.061 143.329 108.061 128.232C108.061 113.623 112.066 100.787 120.849 90.6386L120.854 90.6337L120.858 90.6278C124.118 86.8717 127.75 83.7215 131.721 81.1757C130.015 70.0916 127.529 60.9169 124.26 53.6522C117.42 38.1991 106.527 30.4725 91.5801 30.4725ZM158.206 68.4413C156.589 68.5311 155.78 69.2949 155.78 70.7323V83.3827C152.085 83.7371 148.615 84.4773 145.371 85.6005C145.12 85.6874 144.87 85.7775 144.622 85.869C143.652 86.2265 142.703 86.6191 141.774 87.0468C141.531 87.1588 141.289 87.2727 141.049 87.3895C140.425 87.6928 139.81 88.0118 139.205 88.3475C138.706 88.6243 138.214 88.912 137.729 89.2108C137.371 89.4308 137.017 89.6566 136.666 89.8886C135.669 90.5479 134.702 91.2558 133.762 92.0116C131.863 93.5387 130.078 95.2611 128.41 97.1825C121.51 105.156 118.061 115.506 118.061 128.232L118.07 129.475C118.279 142.241 121.726 152.56 128.41 160.433C129.626 161.807 130.905 163.071 132.243 164.231H132.244C134.429 166.125 136.778 167.733 139.29 169.057C139.557 169.197 139.827 169.335 140.098 169.47C141.211 170.022 142.355 170.519 143.531 170.962C144.136 171.19 144.749 171.403 145.37 171.601C145.72 171.714 146.073 171.822 146.429 171.925C149.367 172.776 152.483 173.317 155.78 173.543V184.352L155.791 184.659C155.892 186.043 156.697 186.781 158.206 186.873C158.314 186.88 158.425 186.883 158.54 186.883H166.59L166.868 186.873C166.953 186.867 167.035 186.856 167.115 186.844C168.214 186.676 168.803 185.949 168.881 184.659L168.891 184.352V172.622C169.001 172.599 169.11 172.574 169.22 172.551C169.606 172.468 169.987 172.381 170.361 172.29C171.591 171.989 172.755 171.643 173.855 171.251L173.854 171.253C176.525 170.301 178.815 169.079 180.723 167.582L181.311 167.102C184.377 164.496 186.601 161.659 187.98 158.593C189.418 155.574 190.182 152.892 190.271 150.547L190.28 150.083C190.28 147.783 189.514 146.633 187.98 146.633C187.367 146.633 186.446 147.093 185.22 148.013C183.533 149.239 181.233 150.619 178.32 152.152C176.868 152.878 175.308 153.454 173.644 153.883C173.613 153.891 173.582 153.898 173.552 153.906C173.084 154.025 172.609 154.133 172.125 154.228C171.936 154.266 171.746 154.3 171.555 154.334C171.45 154.352 171.345 154.369 171.239 154.387C171.14 154.403 171.041 154.42 170.941 154.435C170.863 154.448 170.783 154.459 170.704 154.471C170.564 154.491 170.424 154.511 170.283 154.529C170.234 154.536 170.186 154.543 170.137 154.549C169.998 154.566 169.859 154.582 169.72 154.598C169.634 154.607 169.549 154.618 169.463 154.627C169.273 154.647 169.083 154.666 168.891 154.683V103.392C171.344 103.546 173.567 104.083 175.561 105.003C175.771 105.084 175.985 105.167 176.201 105.254L176.318 105.301C176.38 105.325 176.442 105.352 176.504 105.377C176.66 105.44 176.818 105.505 176.978 105.571C177.093 105.619 177.209 105.668 177.326 105.718C177.431 105.762 177.537 105.807 177.644 105.852C179.071 106.464 180.6 107.177 182.23 107.992C182.461 108.107 182.733 108.223 183.05 108.338L183.38 108.453H184.3L184.443 108.445C185.153 108.373 185.795 107.762 186.37 106.612L187.521 102.242C188.747 97.9492 188.67 94.5762 187.29 92.1229C186.063 89.5163 183.456 87.4463 179.47 85.913C177.783 85.1464 176.097 84.6093 174.41 84.3026C172.724 83.8427 170.884 83.536 168.891 83.3827V70.7323C168.891 69.2949 168.216 68.5311 166.868 68.4413L166.59 68.4325H158.54L158.206 68.4413ZM155.78 104.083V153.532L155.295 153.385C155.047 153.306 154.803 153.223 154.562 153.139C154.5 153.117 154.44 153.096 154.379 153.074C154.287 153.041 154.196 153.007 154.104 152.974C154.044 152.951 153.983 152.928 153.923 152.905C153.856 152.879 153.789 152.853 153.722 152.827C153.632 152.792 153.543 152.757 153.455 152.721C153.369 152.686 153.284 152.65 153.199 152.614C153.151 152.594 153.103 152.574 153.055 152.554C152.931 152.5 152.808 152.445 152.686 152.39C152.667 152.381 152.648 152.374 152.629 152.365C152.549 152.329 152.47 152.291 152.391 152.254C152.306 152.214 152.221 152.175 152.137 152.134C152.096 152.114 152.056 152.093 152.016 152.073C151.931 152.031 151.846 151.989 151.762 151.946C151.689 151.909 151.616 151.871 151.544 151.833C151.474 151.796 151.404 151.76 151.335 151.723C151.251 151.677 151.169 151.631 151.086 151.585C151.044 151.561 151.002 151.537 150.96 151.514C150.856 151.455 150.753 151.395 150.65 151.335C150.632 151.324 150.615 151.313 150.597 151.303C150.504 151.247 150.411 151.191 150.319 151.135C150.267 151.102 150.214 151.07 150.162 151.037C150.075 150.982 149.988 150.926 149.901 150.869C149.875 150.852 149.849 150.834 149.822 150.816C149.73 150.756 149.639 150.695 149.548 150.633C149.505 150.603 149.462 150.574 149.42 150.544C149.343 150.49 149.266 150.436 149.19 150.382C149.14 150.345 149.09 150.308 149.04 150.271C148.979 150.226 148.918 150.181 148.857 150.136C148.784 150.08 148.71 150.024 148.638 149.968C148.6 149.939 148.563 149.91 148.526 149.881C148.452 149.822 148.378 149.763 148.305 149.703C148.248 149.657 148.191 149.61 148.135 149.563C148.093 149.528 148.051 149.492 148.009 149.457C147.935 149.394 147.862 149.332 147.789 149.268C147.747 149.232 147.706 149.194 147.664 149.157C147.591 149.092 147.519 149.027 147.447 148.961C147.404 148.921 147.362 148.882 147.319 148.842C147.263 148.789 147.206 148.735 147.15 148.682C147.093 148.626 147.036 148.57 146.979 148.514C146.928 148.463 146.876 148.413 146.825 148.361C146.778 148.314 146.732 148.266 146.686 148.218C146.112 147.625 145.575 146.994 145.076 146.321C145.046 146.28 145.016 146.238 144.985 146.196C144.657 145.746 144.345 145.279 144.05 144.793C143.892 144.533 143.739 144.269 143.591 144.001C143.464 143.772 143.342 143.539 143.222 143.305C143.201 143.265 143.18 143.225 143.16 143.185L143.134 143.133C143.077 143.019 143.022 142.905 142.967 142.791C142.958 142.774 142.95 142.756 142.941 142.739C142.831 142.508 142.724 142.274 142.62 142.037C142.595 141.98 142.57 141.924 142.546 141.867C142.522 141.811 142.498 141.755 142.475 141.698C142.371 141.452 142.271 141.204 142.174 140.952C142.157 140.908 142.14 140.863 142.123 140.818C142.083 140.712 142.043 140.605 142.004 140.497C141.991 140.46 141.978 140.423 141.965 140.387C141.87 140.123 141.779 139.856 141.691 139.586C141.666 139.508 141.643 139.43 141.618 139.351C141.594 139.274 141.57 139.196 141.546 139.118C141.527 139.055 141.509 138.992 141.49 138.93C141.457 138.817 141.424 138.704 141.392 138.591C141.381 138.552 141.369 138.513 141.358 138.474C141.233 138.022 141.118 137.562 141.012 137.094C141.003 137.054 140.993 137.015 140.984 136.975C140.957 136.852 140.93 136.727 140.904 136.602C140.89 136.535 140.876 136.467 140.862 136.398C140.845 136.315 140.829 136.231 140.812 136.147C140.799 136.08 140.785 136.012 140.772 135.944C140.59 134.972 140.447 133.968 140.344 132.931C140.336 132.857 140.329 132.782 140.322 132.708C140.281 132.266 140.247 131.817 140.22 131.363C140.202 131.07 140.186 130.774 140.175 130.475C140.173 130.419 140.171 130.362 140.169 130.306C140.159 130.026 140.152 129.744 140.147 129.46C140.147 129.404 140.144 129.349 140.144 129.293L140.141 128.692C140.141 121.792 141.597 116.349 144.51 112.362C147.423 108.222 151.18 105.463 155.78 104.083Z" fill="#012241"/>
</svg>
