<svg width="795" height="345" viewBox="0 0 795 345" fill="none" xmlns="http://www.w3.org/2000/svg">
<path d="M213.791 106.472V94.7906L260.246 29.6088H213.7V13.3815H284.973V25.0633L238.473 90.2452H285.064V106.472H213.791ZM331.621 107.836C324.439 107.836 318.257 106.382 313.075 103.472C307.924 100.533 303.954 96.3815 301.166 91.0179C298.378 85.624 296.984 79.2452 296.984 71.8815C296.984 64.6997 298.378 58.3967 301.166 52.9724C303.954 47.5482 307.878 43.3209 312.939 40.2906C318.03 37.2603 323.999 35.7452 330.848 35.7452C335.454 35.7452 339.742 36.4876 343.712 37.9724C347.712 39.427 351.196 41.624 354.166 44.5634C357.166 47.5027 359.499 51.1997 361.166 55.6543C362.833 60.0785 363.666 65.2603 363.666 71.1997V76.5179H304.712V64.5179H345.439C345.439 61.73 344.833 59.2603 343.621 57.1088C342.409 54.9573 340.727 53.2755 338.575 52.0634C336.454 50.8209 333.984 50.1997 331.166 50.1997C328.227 50.1997 325.621 50.8815 323.348 52.2452C321.105 53.5785 319.348 55.3815 318.075 57.6543C316.802 59.8967 316.151 62.3967 316.121 65.1543V76.5634C316.121 80.0179 316.757 83.0027 318.03 85.5179C319.333 88.033 321.166 89.9724 323.53 91.3361C325.893 92.6997 328.696 93.3815 331.939 93.3815C334.09 93.3815 336.06 93.0785 337.848 92.4724C339.636 91.8664 341.166 90.9573 342.439 89.7452C343.712 88.533 344.681 87.0482 345.348 85.2906L363.257 86.4724C362.348 90.7755 360.484 94.533 357.666 97.7452C354.878 100.927 351.272 103.412 346.848 105.2C342.454 106.957 337.378 107.836 331.621 107.836ZM376.302 106.472V36.6543H395.075V48.8361H395.802C397.075 44.5027 399.212 41.23 402.212 39.0179C405.212 36.7755 408.666 35.6543 412.575 35.6543C413.545 35.6543 414.59 35.7149 415.712 35.8361C416.833 35.9573 417.818 36.124 418.666 36.3361V53.5179C417.757 53.2452 416.499 53.0027 414.893 52.7906C413.287 52.5785 411.818 52.4724 410.484 52.4724C407.636 52.4724 405.09 53.0937 402.848 54.3361C400.636 55.5482 398.878 57.2452 397.575 59.427C396.302 61.6088 395.666 64.124 395.666 66.9724V106.472H376.302ZM456.973 107.836C449.912 107.836 443.806 106.336 438.655 103.336C433.534 100.306 429.579 96.0937 426.791 90.6997C424.003 85.2755 422.609 78.9876 422.609 71.8361C422.609 64.624 424.003 58.3209 426.791 52.927C429.579 47.5027 433.534 43.2906 438.655 40.2906C443.806 37.2603 449.912 35.7452 456.973 35.7452C464.034 35.7452 470.124 37.2603 475.246 40.2906C480.397 43.2906 484.367 47.5027 487.155 52.927C489.943 58.3209 491.337 64.624 491.337 71.8361C491.337 78.9876 489.943 85.2755 487.155 90.6997C484.367 96.0937 480.397 100.306 475.246 103.336C470.124 106.336 464.034 107.836 456.973 107.836ZM457.064 92.8361C460.276 92.8361 462.958 91.927 465.109 90.1088C467.261 88.2603 468.882 85.7452 469.973 82.5634C471.094 79.3815 471.655 75.7603 471.655 71.6997C471.655 67.6391 471.094 64.0179 469.973 60.8361C468.882 57.6543 467.261 55.1391 465.109 53.2906C462.958 51.4421 460.276 50.5179 457.064 50.5179C453.821 50.5179 451.094 51.4421 448.882 53.2906C446.7 55.1391 445.049 57.6543 443.927 60.8361C442.837 64.0179 442.291 67.6391 442.291 71.6997C442.291 75.7603 442.837 79.3815 443.927 82.5634C445.049 85.7452 446.7 88.2603 448.882 90.1088C451.094 91.927 453.821 92.8361 457.064 92.8361ZM296.927 160.972H277.018C276.655 158.397 275.912 156.109 274.791 154.109C273.67 152.078 272.231 150.351 270.473 148.927C268.715 147.503 266.685 146.412 264.382 145.654C262.109 144.897 259.64 144.518 256.973 144.518C252.155 144.518 247.958 145.715 244.382 148.109C240.806 150.472 238.034 153.927 236.064 158.472C234.094 162.988 233.109 168.472 233.109 174.927C233.109 181.563 234.094 187.139 236.064 191.654C238.064 196.169 240.852 199.579 244.427 201.882C248.003 204.185 252.14 205.336 256.837 205.336C259.473 205.336 261.912 204.988 264.155 204.291C266.427 203.594 268.443 202.579 270.2 201.245C271.958 199.882 273.412 198.23 274.564 196.291C275.746 194.351 276.564 192.139 277.018 189.654L296.927 189.745C296.412 194.018 295.124 198.139 293.064 202.109C291.034 206.048 288.291 209.579 284.837 212.7C281.412 215.791 277.321 218.245 272.564 220.063C267.837 221.851 262.488 222.745 256.518 222.745C248.215 222.745 240.791 220.866 234.246 217.109C227.73 213.351 222.579 207.912 218.791 200.791C215.034 193.669 213.155 185.048 213.155 174.927C213.155 164.775 215.064 156.139 218.882 149.018C222.7 141.897 227.882 136.472 234.427 132.745C240.973 128.988 248.337 127.109 256.518 127.109C261.912 127.109 266.912 127.866 271.518 129.382C276.155 130.897 280.261 133.109 283.837 136.018C287.412 138.897 290.321 142.427 292.564 146.609C294.837 150.791 296.291 155.579 296.927 160.972ZM342.496 222.836C335.314 222.836 329.132 221.382 323.95 218.472C318.799 215.533 314.829 211.382 312.041 206.018C309.253 200.624 307.859 194.245 307.859 186.882C307.859 179.7 309.253 173.397 312.041 167.972C314.829 162.548 318.753 158.321 323.814 155.291C328.905 152.26 334.874 150.745 341.723 150.745C346.329 150.745 350.617 151.488 354.587 152.972C358.587 154.427 362.071 156.624 365.041 159.563C368.041 162.503 370.374 166.2 372.041 170.654C373.708 175.079 374.541 180.26 374.541 186.2V191.518H315.587V179.518H356.314C356.314 176.73 355.708 174.26 354.496 172.109C353.284 169.957 351.602 168.275 349.45 167.063C347.329 165.821 344.859 165.2 342.041 165.2C339.102 165.2 336.496 165.882 334.223 167.245C331.98 168.579 330.223 170.382 328.95 172.654C327.677 174.897 327.026 177.397 326.996 180.154V191.563C326.996 195.018 327.632 198.003 328.905 200.518C330.208 203.033 332.041 204.972 334.405 206.336C336.768 207.7 339.571 208.382 342.814 208.382C344.965 208.382 346.935 208.079 348.723 207.472C350.511 206.866 352.041 205.957 353.314 204.745C354.587 203.533 355.556 202.048 356.223 200.291L374.132 201.472C373.223 205.775 371.359 209.533 368.541 212.745C365.753 215.927 362.147 218.412 357.723 220.2C353.329 221.957 348.253 222.836 342.496 222.836ZM406.541 181.109V221.472H387.177V151.654H405.632V163.972H406.45C407.996 159.912 410.587 156.7 414.223 154.336C417.859 151.942 422.268 150.745 427.45 150.745C432.299 150.745 436.526 151.806 440.132 153.927C443.738 156.048 446.541 159.079 448.541 163.018C450.541 166.927 451.541 171.594 451.541 177.018V221.472H432.177V180.472C432.208 176.2 431.117 172.866 428.905 170.472C426.693 168.048 423.647 166.836 419.768 166.836C417.162 166.836 414.859 167.397 412.859 168.518C410.89 169.639 409.344 171.275 408.223 173.427C407.132 175.548 406.571 178.109 406.541 181.109ZM503.939 151.654V166.2H461.893V151.654H503.939ZM471.439 134.927H490.802V200.018C490.802 201.806 491.075 203.2 491.621 204.2C492.166 205.169 492.924 205.851 493.893 206.245C494.893 206.639 496.045 206.836 497.348 206.836C498.257 206.836 499.166 206.76 500.075 206.609C500.984 206.427 501.681 206.291 502.166 206.2L505.212 220.609C504.242 220.912 502.878 221.26 501.121 221.654C499.363 222.079 497.227 222.336 494.712 222.427C490.045 222.609 485.954 221.988 482.439 220.563C478.954 219.139 476.242 216.927 474.302 213.927C472.363 210.927 471.409 207.139 471.439 202.563V134.927ZM551.416 221.472H518.416V128.382H551.689C561.052 128.382 569.113 130.245 575.871 133.972C582.628 137.669 587.825 142.988 591.462 149.927C595.128 156.866 596.962 165.169 596.962 174.836C596.962 184.533 595.128 192.866 591.462 199.836C587.825 206.806 582.598 212.154 575.78 215.882C568.992 219.609 560.871 221.472 551.416 221.472ZM538.098 204.609H550.598C556.416 204.609 561.31 203.579 565.28 201.518C569.28 199.427 572.28 196.2 574.28 191.836C576.31 187.442 577.325 181.775 577.325 174.836C577.325 167.957 576.31 162.336 574.28 157.972C572.28 153.609 569.295 150.397 565.325 148.336C561.355 146.275 556.462 145.245 550.643 145.245H538.098V204.609ZM689.405 128.382V221.472H672.405L631.905 162.882H631.223V221.472H611.541V128.382H628.814L668.996 186.927H669.814V128.382H689.405ZM756.166 155.154C755.802 151.488 754.242 148.639 751.484 146.609C748.727 144.578 744.984 143.563 740.257 143.563C737.045 143.563 734.333 144.018 732.121 144.927C729.909 145.806 728.212 147.033 727.03 148.609C725.878 150.185 725.302 151.972 725.302 153.972C725.242 155.639 725.59 157.094 726.348 158.336C727.136 159.579 728.212 160.654 729.575 161.563C730.939 162.442 732.515 163.215 734.302 163.882C736.09 164.518 737.999 165.063 740.03 165.518L748.393 167.518C752.454 168.427 756.181 169.639 759.575 171.154C762.969 172.669 765.909 174.533 768.393 176.745C770.878 178.957 772.802 181.563 774.166 184.563C775.56 187.563 776.272 191.003 776.302 194.882C776.272 200.579 774.818 205.518 771.939 209.7C769.09 213.851 764.969 217.079 759.575 219.382C754.212 221.654 747.742 222.791 740.166 222.791C732.651 222.791 726.105 221.639 720.53 219.336C714.984 217.033 710.651 213.624 707.53 209.109C704.439 204.563 702.818 198.942 702.666 192.245H721.712C721.924 195.366 722.818 197.972 724.393 200.063C725.999 202.124 728.136 203.685 730.802 204.745C733.499 205.775 736.545 206.291 739.939 206.291C743.272 206.291 746.166 205.806 748.621 204.836C751.105 203.866 753.03 202.518 754.393 200.791C755.757 199.063 756.439 197.079 756.439 194.836C756.439 192.745 755.818 190.988 754.575 189.563C753.363 188.139 751.575 186.927 749.212 185.927C746.878 184.927 744.015 184.018 740.621 183.2L730.484 180.654C722.636 178.745 716.439 175.76 711.893 171.7C707.348 167.639 705.09 162.169 705.121 155.291C705.09 149.654 706.59 144.73 709.621 140.518C712.681 136.306 716.878 133.018 722.212 130.654C727.545 128.291 733.605 127.109 740.393 127.109C747.302 127.109 753.333 128.291 758.484 130.654C763.666 133.018 767.696 136.306 770.575 140.518C773.454 144.73 774.939 149.609 775.03 155.154H756.166Z" fill="white"/>
<path d="M90.8203 0.0720524C131.973 -1.3531 158.653 18.3318 170.866 59.1258C172.379 59.6415 173.96 60.5101 175.387 61.9363C178.307 64.8563 178.891 68.4242 178.891 70.7322V75.0838C180.393 75.5023 181.861 76.0366 183.296 76.6717C188.373 78.6652 193.441 81.9817 196.19 87.5633C199.221 93.2351 198.662 99.5271 197.19 104.786L197.191 104.787L196.041 109.157L195.777 110.159L195.314 111.085C194.384 112.946 191.174 118.453 184.3 118.453H181.758L180.218 117.939C179.804 117.801 179.357 117.637 178.891 117.446V140.241L179.339 139.926C180.199 139.287 181.222 138.601 182.358 138.033C183.385 137.52 185.408 136.633 187.98 136.633L188.326 136.637C191.903 136.736 195.638 138.367 198.025 141.948C200.013 144.929 200.28 148.138 200.28 150.083C200.28 154.469 198.956 158.75 197.1 162.696L196.899 163.131C194.799 167.605 191.641 171.446 187.787 174.721C185.147 176.966 182.143 178.707 178.891 180.033V184.352C178.891 186.514 178.419 190.001 175.715 192.976C172.846 196.132 169.157 196.883 166.59 196.883H165.634C162.911 203.011 159.762 208.595 156.181 213.633C141.234 234.659 119.194 245.173 90.0605 245.173C60.9274 245.173 38.634 234.659 23.1807 213.633C7.72741 192.353 7.62735e-05 162.586 0 124.333C0 85.8262 7.72736 55.8056 23.1807 34.2722C38.8873 12.4858 61.4338 1.08538 90.8203 0.0720524ZM91.5801 30.4724C59.9135 30.4725 44.0801 62.519 44.0801 126.612C44.0801 158.532 48.007 181.332 55.8604 195.012C63.7137 208.439 75.4936 215.152 91.2002 215.152C107.16 215.152 118.307 208.058 124.641 193.872C126.96 188.787 128.868 182.617 130.37 175.364C126.951 173.072 123.793 170.306 120.92 167.058L120.853 166.982L120.787 166.905C111.997 156.552 108.061 143.329 108.061 128.232C108.061 113.622 112.066 100.787 120.849 90.6385L120.854 90.6336L120.858 90.6277C124.118 86.8716 127.75 83.7214 131.721 81.1756C130.015 70.0915 127.529 60.9168 124.26 53.6521C117.42 38.199 106.527 30.4724 91.5801 30.4724ZM158.206 68.4412C156.589 68.531 155.78 69.2948 155.78 70.7322V83.3826C152.085 83.737 148.615 84.4772 145.371 85.6004C145.12 85.6873 144.87 85.7774 144.622 85.8689C143.652 86.2264 142.703 86.619 141.774 87.0467C141.531 87.1587 141.289 87.2726 141.049 87.3894C140.425 87.6927 139.81 88.0117 139.205 88.3474C138.706 88.6242 138.214 88.9119 137.729 89.2107C137.371 89.4307 137.017 89.6565 136.666 89.8885C135.669 90.5477 134.702 91.2557 133.762 92.0115C131.863 93.5386 130.078 95.261 128.41 97.1824C121.51 105.156 118.061 115.506 118.061 128.232L118.07 129.475C118.279 142.241 121.726 152.56 128.41 160.432C129.626 161.806 130.905 163.071 132.243 164.231H132.244C134.429 166.125 136.778 167.733 139.29 169.056C139.557 169.197 139.827 169.335 140.098 169.47C141.211 170.022 142.355 170.519 143.531 170.962C144.136 171.189 144.749 171.402 145.37 171.601C145.72 171.714 146.073 171.822 146.429 171.925C149.367 172.776 152.483 173.317 155.78 173.543V184.352L155.791 184.659C155.892 186.042 156.697 186.781 158.206 186.873C158.314 186.879 158.425 186.883 158.54 186.883H166.59L166.868 186.873C166.953 186.867 167.035 186.856 167.115 186.844C168.214 186.676 168.803 185.949 168.881 184.659L168.891 184.352V172.622C169.001 172.599 169.11 172.574 169.22 172.551C169.606 172.468 169.987 172.381 170.361 172.29C171.591 171.989 172.755 171.643 173.855 171.251L173.854 171.253C176.525 170.301 178.815 169.078 180.723 167.582L181.311 167.102C184.377 164.496 186.601 161.659 187.98 158.593C189.418 155.574 190.182 152.892 190.271 150.547L190.28 150.083C190.28 147.783 189.514 146.633 187.98 146.633C187.367 146.633 186.446 147.092 185.22 148.012C183.533 149.239 181.233 150.619 178.32 152.152C176.868 152.878 175.308 153.454 173.644 153.883C173.613 153.89 173.582 153.898 173.552 153.906C173.084 154.025 172.609 154.133 172.125 154.228C171.936 154.266 171.746 154.3 171.555 154.334C171.45 154.352 171.345 154.369 171.239 154.387C171.14 154.403 171.041 154.42 170.941 154.435C170.863 154.447 170.783 154.459 170.704 154.47C170.564 154.491 170.424 154.511 170.283 154.529C170.234 154.535 170.186 154.542 170.137 154.549C169.998 154.566 169.859 154.582 169.72 154.597C169.634 154.607 169.549 154.618 169.463 154.627C169.273 154.647 169.083 154.666 168.891 154.682V103.392C169.044 103.402 169.196 103.413 169.348 103.426C171.621 103.614 173.692 104.14 175.561 105.003C175.771 105.084 175.985 105.167 176.201 105.254L176.318 105.301C176.38 105.325 176.442 105.351 176.504 105.377C176.66 105.44 176.818 105.505 176.978 105.571C177.093 105.619 177.209 105.668 177.326 105.718C177.431 105.762 177.537 105.807 177.644 105.852C179.071 106.464 180.6 107.177 182.23 107.992C182.461 108.107 182.733 108.223 183.05 108.338L183.38 108.453H184.3L184.443 108.445C185.153 108.373 185.795 107.762 186.37 106.612L187.521 102.242C188.747 97.9491 188.67 94.576 187.29 92.1228C186.063 89.5162 183.456 87.4462 179.47 85.9129C177.783 85.1463 176.097 84.6092 174.41 84.3025C172.724 83.8426 170.884 83.5359 168.891 83.3826V70.7322C168.891 69.2948 168.216 68.531 166.868 68.4412L166.59 68.4324H158.54L158.206 68.4412ZM155.78 104.083V153.532L155.295 153.385C155.047 153.306 154.803 153.223 154.562 153.138C154.5 153.117 154.44 153.096 154.379 153.074C154.287 153.041 154.196 153.007 154.104 152.973C154.044 152.951 153.983 152.928 153.923 152.905C153.856 152.879 153.789 152.853 153.722 152.827C153.632 152.792 153.543 152.757 153.455 152.72C153.369 152.686 153.284 152.65 153.199 152.614C153.151 152.594 153.103 152.574 153.055 152.553C152.931 152.5 152.808 152.445 152.686 152.389C152.667 152.381 152.648 152.374 152.629 152.365C152.549 152.329 152.47 152.291 152.391 152.254C152.306 152.214 152.221 152.174 152.137 152.134C152.096 152.114 152.056 152.093 152.016 152.073C151.931 152.031 151.846 151.989 151.762 151.946C151.689 151.909 151.616 151.871 151.544 151.833C151.474 151.796 151.404 151.76 151.335 151.722C151.251 151.677 151.169 151.631 151.086 151.585C151.044 151.561 151.002 151.537 150.96 151.513C150.856 151.455 150.753 151.395 150.65 151.335C150.632 151.324 150.615 151.313 150.597 151.303C150.504 151.247 150.411 151.191 150.319 151.135C150.267 151.102 150.214 151.07 150.162 151.037C150.075 150.982 149.988 150.925 149.901 150.869C149.875 150.852 149.849 150.834 149.822 150.816C149.73 150.755 149.639 150.695 149.548 150.633C149.505 150.603 149.462 150.573 149.42 150.544C149.343 150.49 149.266 150.436 149.19 150.382C149.14 150.345 149.09 150.308 149.04 150.271C148.979 150.226 148.918 150.181 148.857 150.136C148.784 150.08 148.71 150.024 148.638 149.968C148.6 149.939 148.563 149.91 148.526 149.881C148.452 149.822 148.378 149.763 148.305 149.703C148.248 149.657 148.191 149.61 148.135 149.563C148.093 149.528 148.051 149.492 148.009 149.457C147.935 149.394 147.862 149.332 147.789 149.268C147.747 149.232 147.706 149.194 147.664 149.157C147.591 149.092 147.519 149.027 147.447 148.961C147.404 148.921 147.362 148.881 147.319 148.842C147.263 148.788 147.206 148.735 147.15 148.681C147.093 148.626 147.036 148.57 146.979 148.513C146.928 148.463 146.876 148.413 146.825 148.361C146.778 148.314 146.732 148.266 146.686 148.218C146.112 147.625 145.575 146.994 145.076 146.321C145.046 146.28 145.016 146.238 144.985 146.196C144.657 145.746 144.345 145.278 144.05 144.793C143.892 144.533 143.739 144.269 143.591 144.001C143.464 143.772 143.342 143.539 143.222 143.304C143.201 143.265 143.18 143.225 143.16 143.185L143.134 143.133C143.077 143.019 143.022 142.905 142.967 142.791C142.958 142.773 142.95 142.756 142.941 142.739C142.831 142.508 142.724 142.274 142.62 142.037C142.595 141.98 142.57 141.924 142.546 141.867C142.522 141.811 142.498 141.754 142.475 141.698C142.371 141.452 142.271 141.204 142.174 140.952C142.157 140.907 142.14 140.863 142.123 140.818C142.083 140.712 142.043 140.604 142.004 140.497C141.991 140.46 141.978 140.423 141.965 140.387C141.87 140.122 141.779 139.856 141.691 139.586C141.666 139.508 141.643 139.43 141.618 139.351C141.594 139.274 141.57 139.196 141.546 139.118C141.527 139.055 141.509 138.992 141.49 138.929C141.457 138.817 141.424 138.704 141.392 138.591C141.381 138.552 141.369 138.513 141.358 138.473C141.233 138.021 141.118 137.561 141.012 137.094C141.003 137.054 140.993 137.015 140.984 136.975C140.957 136.852 140.93 136.727 140.904 136.602C140.89 136.534 140.876 136.466 140.862 136.398C140.845 136.315 140.829 136.231 140.812 136.147C140.799 136.08 140.785 136.012 140.772 135.944C140.59 134.972 140.447 133.968 140.344 132.93C140.336 132.856 140.329 132.782 140.322 132.708C140.281 132.265 140.247 131.817 140.22 131.363C140.202 131.07 140.186 130.774 140.175 130.475C140.173 130.419 140.171 130.362 140.169 130.305C140.159 130.026 140.152 129.744 140.147 129.46C140.147 129.404 140.144 129.349 140.144 129.293L140.141 128.692C140.141 121.792 141.597 116.349 144.51 112.362C147.332 108.352 150.946 105.637 155.352 104.217C155.494 104.171 155.637 104.126 155.78 104.083Z" fill="white"/>
<path d="M93.1093 296.472H80.7343V261.563H93.2116C96.7229 261.563 99.7457 262.262 102.28 263.66C104.814 265.046 106.763 267.041 108.126 269.643C109.501 272.245 110.189 275.359 110.189 278.984C110.189 282.62 109.501 285.745 108.126 288.359C106.763 290.972 104.802 292.978 102.246 294.376C99.7002 295.774 96.6547 296.472 93.1093 296.472ZM88.115 290.149H92.8025C94.9843 290.149 96.8195 289.762 98.3082 288.989C99.8082 288.205 100.933 286.995 101.683 285.359C102.445 283.711 102.825 281.586 102.825 278.984C102.825 276.404 102.445 274.296 101.683 272.66C100.933 271.024 99.8138 269.819 98.3252 269.046C96.8366 268.274 95.0013 267.887 92.8195 267.887H88.115V290.149ZM115.656 296.472V261.563H139.179V267.649H123.037V275.967H137.969V282.052H123.037V290.387H139.247V296.472H115.656ZM175.848 273.785H168.382C168.246 272.819 167.967 271.961 167.547 271.211C167.126 270.45 166.587 269.802 165.927 269.268C165.268 268.734 164.507 268.325 163.643 268.041C162.791 267.757 161.865 267.614 160.865 267.614C159.058 267.614 157.484 268.063 156.143 268.961C154.802 269.847 153.763 271.143 153.024 272.847C152.285 274.541 151.916 276.597 151.916 279.018C151.916 281.507 152.285 283.597 153.024 285.291C153.774 286.984 154.82 288.262 156.16 289.126C157.501 289.989 159.052 290.421 160.814 290.421C161.802 290.421 162.717 290.291 163.558 290.029C164.41 289.768 165.166 289.387 165.825 288.887C166.484 288.376 167.03 287.757 167.462 287.029C167.905 286.302 168.212 285.472 168.382 284.541L175.848 284.575C175.655 286.177 175.172 287.722 174.399 289.211C173.638 290.688 172.609 292.012 171.314 293.183C170.03 294.342 168.496 295.262 166.712 295.944C164.939 296.614 162.933 296.95 160.695 296.95C157.581 296.95 154.797 296.245 152.342 294.836C149.899 293.427 147.967 291.387 146.547 288.717C145.138 286.046 144.433 282.813 144.433 279.018C144.433 275.211 145.149 271.972 146.581 269.302C148.013 266.632 149.956 264.597 152.41 263.2C154.865 261.791 157.626 261.086 160.695 261.086C162.717 261.086 164.592 261.37 166.32 261.938C168.058 262.507 169.598 263.336 170.939 264.427C172.28 265.507 173.371 266.83 174.212 268.399C175.064 269.967 175.609 271.762 175.848 273.785ZM181.141 296.472V261.563H204.663V267.649H188.521V275.967H203.453V282.052H188.521V290.387H204.731V296.472H181.141ZM239.73 261.563V296.472H233.355L218.168 274.501H217.912V296.472H210.531V261.563H217.008L232.077 283.518H232.383V261.563H239.73ZM244.498 267.649V261.563H273.169V267.649H262.481V296.472H255.186V267.649H244.498ZM277.891 296.472V261.563H291.663C294.3 261.563 296.55 262.035 298.413 262.978C300.288 263.91 301.714 265.234 302.692 266.95C303.68 268.654 304.175 270.66 304.175 272.967C304.175 275.285 303.675 277.279 302.675 278.95C301.675 280.609 300.226 281.882 298.328 282.768C296.442 283.654 294.158 284.097 291.476 284.097H282.254V278.166H290.283C291.692 278.166 292.862 277.972 293.794 277.586C294.726 277.2 295.419 276.62 295.873 275.847C296.339 275.075 296.572 274.114 296.572 272.967C296.572 271.808 296.339 270.83 295.873 270.035C295.419 269.239 294.72 268.637 293.777 268.228C292.845 267.808 291.669 267.597 290.248 267.597H285.271V296.472H277.891ZM296.743 280.586L305.419 296.472H297.271L288.783 280.586H296.743ZM315.408 296.472H307.498L319.55 261.563H329.061L341.095 296.472H333.186L324.442 269.541H324.169L315.408 296.472ZM314.913 282.751H333.595V288.512H314.913V282.751ZM345.297 296.472V261.563H352.677V290.387H367.643V296.472H345.297ZM379.912 261.563V296.472H372.531V261.563H379.912ZM385.609 296.472V292.092L403.03 267.649H385.575V261.563H412.302V265.944L394.865 290.387H412.337V296.472H385.609ZM418 296.472V261.563H441.523V267.649H425.381V275.967H440.312V282.052H425.381V290.387H441.591V296.472H418ZM459.766 296.472H447.391V261.563H459.868C463.379 261.563 466.402 262.262 468.936 263.66C471.47 265.046 473.419 267.041 474.783 269.643C476.158 272.245 476.845 275.359 476.845 278.984C476.845 282.62 476.158 285.745 474.783 288.359C473.419 290.972 471.459 292.978 468.902 294.376C466.356 295.774 463.311 296.472 459.766 296.472ZM454.771 290.149H459.459C461.641 290.149 463.476 289.762 464.964 288.989C466.464 288.205 467.589 286.995 468.339 285.359C469.101 283.711 469.481 281.586 469.481 278.984C469.481 276.404 469.101 274.296 468.339 272.66C467.589 271.024 466.47 269.819 464.981 269.046C463.493 268.274 461.658 267.887 459.476 267.887H454.771V290.149ZM484.217 296.916C483.092 296.916 482.126 296.518 481.32 295.722C480.524 294.916 480.126 293.95 480.126 292.825C480.126 291.711 480.524 290.757 481.32 289.961C482.126 289.166 483.092 288.768 484.217 288.768C485.308 288.768 486.263 289.166 487.081 289.961C487.899 290.757 488.308 291.711 488.308 292.825C488.308 293.575 488.115 294.262 487.729 294.887C487.354 295.501 486.859 295.995 486.246 296.37C485.632 296.734 484.956 296.916 484.217 296.916ZM503.875 296.472V261.563H526.989V267.649H511.256V275.967H525.454V282.052H511.256V296.472H503.875ZM533.611 296.472H525.702L537.753 261.563H547.264L559.298 296.472H551.389L542.645 269.541H542.372L533.611 296.472ZM533.116 282.751H551.798V288.512H533.116V282.751ZM581.641 271.603C581.504 270.228 580.919 269.16 579.885 268.399C578.851 267.637 577.447 267.257 575.675 267.257C574.47 267.257 573.453 267.427 572.623 267.768C571.794 268.097 571.158 268.558 570.714 269.149C570.283 269.739 570.067 270.41 570.067 271.16C570.044 271.785 570.175 272.33 570.459 272.796C570.754 273.262 571.158 273.666 571.669 274.007C572.18 274.336 572.771 274.626 573.442 274.876C574.112 275.114 574.828 275.319 575.589 275.489L578.726 276.239C580.248 276.58 581.646 277.035 582.919 277.603C584.192 278.171 585.294 278.87 586.226 279.7C587.158 280.529 587.879 281.507 588.391 282.632C588.913 283.757 589.18 285.046 589.192 286.501C589.18 288.637 588.635 290.489 587.555 292.058C586.487 293.614 584.942 294.825 582.919 295.688C580.908 296.541 578.481 296.967 575.641 296.967C572.822 296.967 570.368 296.535 568.277 295.671C566.197 294.808 564.572 293.529 563.402 291.836C562.243 290.132 561.635 288.024 561.578 285.512H568.72C568.8 286.683 569.135 287.66 569.726 288.444C570.328 289.217 571.129 289.802 572.129 290.2C573.141 290.586 574.283 290.779 575.555 290.779C576.805 290.779 577.891 290.597 578.811 290.234C579.743 289.87 580.464 289.364 580.976 288.717C581.487 288.069 581.743 287.325 581.743 286.484C581.743 285.7 581.51 285.041 581.044 284.507C580.589 283.972 579.919 283.518 579.033 283.143C578.158 282.768 577.084 282.427 575.811 282.12L572.01 281.166C569.067 280.45 566.743 279.33 565.038 277.808C563.334 276.285 562.487 274.234 562.498 271.654C562.487 269.541 563.05 267.694 564.186 266.114C565.334 264.535 566.908 263.302 568.908 262.416C570.908 261.529 573.18 261.086 575.726 261.086C578.317 261.086 580.578 261.529 582.51 262.416C584.453 263.302 585.964 264.535 587.044 266.114C588.123 267.694 588.68 269.524 588.714 271.603H581.641ZM592.827 267.649V261.563H621.497V267.649H610.81V296.472H603.514V267.649H592.827ZM628.686 296.916C627.561 296.916 626.595 296.518 625.788 295.722C624.993 294.916 624.595 293.95 624.595 292.825C624.595 291.711 624.993 290.757 625.788 289.961C626.595 289.166 627.561 288.768 628.686 288.768C629.777 288.768 630.731 289.166 631.55 289.961C632.368 290.757 632.777 291.711 632.777 292.825C632.777 293.575 632.584 294.262 632.197 294.887C631.822 295.501 631.328 295.995 630.714 296.37C630.101 296.734 629.425 296.916 628.686 296.916ZM648.344 296.472V261.563H671.457V267.649H655.724V275.967H669.923V282.052H655.724V296.472H648.344ZM676.422 296.472V261.563H690.195C692.831 261.563 695.081 262.035 696.945 262.978C698.82 263.91 700.246 265.234 701.223 266.95C702.212 268.654 702.706 270.66 702.706 272.967C702.706 275.285 702.206 277.279 701.206 278.95C700.206 280.609 698.757 281.882 696.859 282.768C694.973 283.654 692.689 284.097 690.007 284.097H680.785V278.166H688.814C690.223 278.166 691.393 277.972 692.325 277.586C693.257 277.2 693.95 276.62 694.405 275.847C694.871 275.075 695.104 274.114 695.104 272.967C695.104 271.808 694.871 270.83 694.405 270.035C693.95 269.239 693.251 268.637 692.308 268.228C691.376 267.808 690.2 267.597 688.78 267.597H683.802V296.472H676.422ZM695.274 280.586L703.95 296.472H695.802L687.314 280.586H695.274ZM707.922 296.472V261.563H731.445V267.649H715.302V275.967H730.234V282.052H715.302V290.387H731.513V296.472H707.922ZM737.312 296.472V261.563H760.835V267.649H744.693V275.967H759.625V282.052H744.693V290.387H760.903V296.472H737.312ZM770.811 296.916C769.686 296.916 768.72 296.518 767.913 295.722C767.118 294.916 766.72 293.95 766.72 292.825C766.72 291.711 767.118 290.757 767.913 289.961C768.72 289.166 769.686 288.768 770.811 288.768C771.902 288.768 772.856 289.166 773.675 289.961C774.493 290.757 774.902 291.711 774.902 292.825C774.902 293.575 774.709 294.262 774.322 294.887C773.947 295.501 773.453 295.995 772.839 296.37C772.226 296.734 771.55 296.916 770.811 296.916Z" fill="white"/>
</svg>
